<?xml version="1.0" encoding="utf-8"?>
<!-- Generator: Adobe Illustrator 23.0.3, SVG Export Plug-In . SVG Version: 6.00 Build 0)  -->
<svg version="1.1" id="Capa_1" xmlns="http://www.w3.org/2000/svg" xmlns:xlink="http://www.w3.org/1999/xlink" x="0px" y="0px"
	 width="47" height="52" viewBox="0 0 1200 1200" enable-background="new 0 0 1200 1200" xml:space="preserve">
<g>
	<path fill="#54c4db" stroke="black" stroke-width="3" d="M1150,600c0,303.757-246.243,550-550,550S50,903.757,50,600S296.243,50,600,50S1150,296.243,1150,600z"/>
	<path d="M1118.919,782.598c-6.258,17.784-13.397,35.15-21.378,52.043c-1.072-7.119-2.198-14.307-3.413-21.586
		c-11.524-69.055-31.21-152.818-64.698-233.149c-19.557,25.704-37.77,60.518-51.738,107.661
		c-24.224,81.756-59.965,187.526-121.855,280.522c-45.716,68.692-102.879,126.637-173.423,175.761
		c-20.963,3.15-42.318,5.095-63.986,5.808c192.499-113.605,269.85-264.985,330.755-470.539
		c17.501-59.067,41.754-100.465,66.896-129.483c-15.423-32.935-33.401-64.848-54.267-94.492
		c-38.422,46.516-82.067,92.202-130.809,136.782c-86.792,79.38-189.758,155.511-306.038,226.274
		c-133.576,81.29-254.68,136.924-319.763,164.677c-7.324-7.551-14.456-15.288-21.341-23.248
		c61.151-25.681,186.723-82.238,326.145-167.134c135.378-82.433,305.056-205.076,433.345-361.967
		c-7.683-9.617-15.677-18.961-24.083-27.906c-0.098-0.106-0.195-0.213-0.292-0.321c-19.8-22.346-39.808-42.769-59.891-61.465
		c-15.715,12.317-34.761,23.896-57.37,34.796c-102.372,49.354-186.508,54.067-283.93,59.526
		c-62.493,3.501-127.114,7.122-206.018,22.601C162.918,486.958,81.381,549.92,50.441,578.915c0.536-14.205,1.609-28.27,3.202-42.179
		c43.655-34.46,124.17-83.001,252.403-108.156c80.917-15.872,149.535-19.716,210.076-23.109
		c94.248-5.282,175.645-9.842,272.682-56.624c18.737-9.033,34.587-18.409,47.757-28.174
		C700.773,203.157,563.748,162.395,465.677,149.993c-82.351-10.414-149.492-2.939-187.271,3.818
		c18.847-13.608,38.572-26.074,59.106-37.247c36.152-2.48,80.458-2.463,130.423,3.745C571.455,133.175,716.34,176.01,859.12,300.815
		c12.301-13.265,20.142-27.26,23.659-42.128c12.069-51.025-28.949-112.03-70.298-166.121c19.429,8.145,38.278,17.39,56.498,27.626
		c31.307,47.332,54.022,97.624,42.737,145.337c-4.702,19.877-14.884,38.196-30.604,55.188c20.12,18.838,40.154,39.343,59.978,61.705
		c7.345,7.825,14.403,15.916,21.217,24.217c31.325-40.516,59.755-83.196,84.089-127.951c6.494,9.005,12.721,18.213,18.671,27.615
		c-23.821,42.071-51.821,83.711-83.915,124.742c21.915,30.151,40.793,62.631,57.086,96.16
		c14.631-12.919,28.983-22.178,41.901-28.797c21.559-11.047,41.444-16.141,56.69-18.418c2.134,9.59,4.012,19.275,5.638,29.046
		c-21.649,2.897-56.868,12.995-91.271,46.264C1084.954,632.452,1105.917,713.158,1118.919,782.598z"/>
</g>
</svg>
