<svg version="1.0" xmlns="http://www.w3.org/2000/svg"
 width="49" height="52" viewBox="0 0 512.000000 512.000000" style="margin-inline-start: 2rem; background: #54c4db; border-radius: 5px; outline: 2.5px solid black; outline-offset: -0.15rem;">

<g transform="translate(0.000000,512.000000) scale(0.100000,-0.100000)"
fill="#000000" stroke="none">
<path d="M345 5106 c-84 -21 -147 -57 -211 -121 -65 -65 -105 -136 -123 -223
-16 -76 -16 -4329 0 -4404 37 -172 175 -310 347 -347 75 -16 4328 -16 4404 0
170 36 311 178 347 347 16 76 16 4329 0 4404 -37 172 -176 311 -347 347 -81
17 -4349 14 -4417 -3z m4395 -306 c26 -13 47 -34 60 -60 20 -39 20 -54 20
-2180 0 -2126 0 -2141 -20 -2180 -13 -26 -34 -47 -60 -60 -39 -20 -54 -20
-2181 -20 l-2141 0 -40 22 c-24 14 -48 38 -59 60 -18 36 -19 95 -19 2180 1
2044 2 2145 19 2177 10 18 35 44 57 57 l39 24 2143 0 c2128 0 2143 0 2182 -20z"/>
<path d="M2365 4494 c-275 -28 -424 -55 -615 -110 -163 -48 -364 -129 -520
-210 -144 -75 -398 -241 -429 -280 -27 -34 -36 -88 -23 -132 6 -19 192 -276
419 -578 313 -416 417 -548 446 -564 58 -33 107 -24 198 37 442 299 995 299
1437 1 40 -27 88 -52 107 -55 46 -7 96 11 132 50 17 17 209 269 426 558 421
560 422 561 398 640 -14 47 -74 97 -239 201 -352 222 -714 356 -1137 419 -125
19 -500 33 -600 23z m420 -304 c315 -29 595 -105 875 -237 126 -59 320 -172
320 -186 0 -7 -565 -763 -594 -795 -10 -10 -34 -2 -122 42 -60 30 -141 65
-179 79 -87 31 -290 77 -339 77 l-36 0 0 248 c0 276 -4 296 -69 339 -71 48
-175 20 -213 -57 -16 -31 -18 -67 -18 -282 l0 -248 -37 0 c-50 0 -229 -41
-328 -75 -44 -15 -129 -52 -189 -82 -89 -45 -111 -52 -121 -41 -30 32 -595
788 -595 796 0 24 340 203 505 265 218 82 477 140 720 160 93 8 318 6 420 -3z"/>
</g>
</svg>
